<svg xmlns="http://www.w3.org/2000/svg" style="isolation:isolate" viewBox="0 0 80 90" >
  <path d=" M 11 50 L 11 50 L 11 40 C 11 39.73 10.89 39.48 10.71 39.29 C 10.52 39.11 10.27 39 10 39 C 9.73 39 9.48 39.11 9.29 39.29 C 9.11 39.48 9 39.73 9 40 L 9 50 L 5 50 L 10 60 L 15 50 L 11 50 Z M 71 50 L 71 50 L 71 40 C 71 39.73 70.89 39.48 70.71 39.29 C 70.52 39.11 70.27 39 70 39 C 69.73 39 69.48 39.11 69.29 39.29 C 69.11 39.48 69 39.73 69 40 L 69 50 L 65 50 L 70 60 L 75 50 L 71 50 Z " fill="#fff"/>
  <path d=" M 30 45 C 30 39.481 34.481 35 40 35 C 45.519 35 50 39.481 50 45 C 50 50.519 45.519 55 40 55 C 34.481 55 30 50.519 30 45 Z M 50 45 L 70 30 M 30 45 L 10 30 " fill="none" stroke-width="5" stroke="#fff" stroke-linejoin="round" stroke-linecap="round"/>
</svg>
