<svg xmlns="http://www.w3.org/2000/svg" viewBox="0 0 80 90">
  <path d=" M 57 19.079 C 60.392 19.489 63.434 21.463 65.18 24.45 C 65.31 24.68 65.35 24.95 65.28 25.21 C 65.22 25.46 65.05 25.68 64.82 25.82 C 64.59 25.95 64.32 25.99 64.06 25.92 C 63.81 25.85 63.59 25.69 63.45 25.46 C 62.064 23.084 59.678 21.494 57 21.097 L 57 25 L 47 20 L 57 15 L 57 19.079 Z M 23 19.079 C 19.608 19.489 16.566 21.463 14.82 24.45 C 14.69 24.68 14.65 24.95 14.72 25.21 C 14.78 25.46 14.95 25.68 15.18 25.82 C 15.41 25.95 15.68 25.99 15.94 25.92 C 16.19 25.85 16.41 25.69 16.55 25.46 C 17.936 23.084 20.322 21.494 23 21.097 L 23 25 L 33 20 L 23 15 L 23 19.079 Z " fill="#fff"/>
  <path d=" M 30 45 C 30 39.481 34.481 35 40 35 C 45.519 35 50 39.481 50 45 C 50 50.519 45.519 55 40 55 C 34.481 55 30 50.519 30 45 Z M 50 45 L 70 30 M 30 45 L 10 30 " fill="none" stroke-width="5" stroke="#fff" stroke-linejoin="round" stroke-linecap="round"/>
</svg>
