<svg xmlns="http://www.w3.org/2000/svg" xmlns:xlink="http://www.w3.org/1999/xlink" viewBox="0 0 400 90" width="400" height="90" stroke-linejoin="round" stroke-linecap="round" fill="none" stroke-width="5" stroke="#fff">
  <path d="M 300 60 L 280 80 L 280 40 L 280 80 L 260 60"/>
  <path d="M 280 30 L 285 20 L 275 20 L 280 10"/>

  <path d="M 180 30 L 200 10 L 200 50 L 200 10 L 220 30"/>
  <path d="M 200 60 L 195 70 L 205 70 L 200 80"/>

  <path d="M 130 12.5 C 130.66 12.5 131.3 12.76 131.77 13.23 C 132.24 13.7 132.5 14.34 132.5 15 C 132.5 15.66 132.24 16.3 131.77 16.77 C 131.3 17.24 130.66 17.5 130 17.5 L 110 17.5 C 109.34 17.5 108.7 17.24 108.23 16.77 C 107.76 16.3 107.5 15.66 107.5 15 C 107.5 14.34 107.76 13.7 108.23 13.23 C 108.7 12.76 109.34 12.5 110 12.5 L 130 12.5 L 130 12.5 L 130 12.5 Z M 105 22.5 L 135 22.5 C 136.38 22.5 137.5 23.62 137.5 25 L 137.5 65 C 137.5 66.38 136.38 67.5 135 67.5 L 105 67.5 C 103.62 67.5 102.5 66.38 102.5 65 L 102.5 25 C 102.5 23.62 103.62 22.5 105 22.5 L 105 22.5 Z M 102.5 7.5 L 137.5 7.5 C 140.26 7.5 142.5 9.74 142.5 12.5 L 142.5 77.5 C 142.5 80.26 140.26 82.5 137.5 82.5 L 102.5 82.5 C 99.74 82.5 97.5 80.26 97.5 77.5 L 97.5 12.5 C 97.5 9.74 99.74 7.5 102.5 7.5 L 102.5 7.5 L 102.5 7.5 Z M 115 75 C 115 72.24 117.24 70 120 70 C 122.76 70 125 72.24 125 75 C 125 77.76 122.76 80 120 80 C 117.24 80 115 77.76 115 75 Z" fill-rule="evenodd" fill="#fff" stroke="none"/>

  <circle cx="40" cy="25" r="10"/>
  <path d="M 10 65 L 23 57 L 30 40 L 50 40 L 57 57 L 70 65"/>
  <path d="M 30 40 L 30 70 L 50 70 L 50 40"/>
  <path d="M 20 80 L 60 70 L 20 70 L 60 80"/>

  <circle cx="360" cy="45" r="10"/>
</svg>