<?xml version="1.0" standalone="no"?>
<!DOCTYPE svg PUBLIC "-//W3C//DTD SVG 20010904//EN"
 "http://www.w3.org/TR/2001/REC-SVG-20010904/DTD/svg10.dtd">
<svg version="1.0" xmlns="http://www.w3.org/2000/svg"
 width="260.000000pt" height="260.000000pt" viewBox="0 0 260.000000 260.000000"
 preserveAspectRatio="xMidYMid meet">
<metadata>
Created by potrace 1.11, written by Peter Selinger 2001-2013
</metadata>
<g transform="translate(0.000000,260.000000) scale(0.100000,-0.100000)"
fill="#000000" stroke="none">
<path d="M0 1300 l0 -1300 1300 0 1300 0 0 1300 0 1300 -1300 0 -1300 0 0
-1300z m1461 1065 c547 -95 948 -619 889 -1162 -31 -294 -181 -559 -414 -737
-421 -322 -996 -295 -1380 65 -352 329 -438 849 -212 1275 218 410 672 637
1117 559z"/>
<path d="M1150 1964 c-108 -23 -222 -86 -304 -168 -80 -80 -125 -151 -164
-258 -24 -67 -27 -86 -27 -223 0 -163 8 -201 67 -320 80 -160 245 -293 418
-336 72 -18 251 -18 315 0 157 44 315 169 387 307 62 119 82 201 82 339 0 139
-16 210 -72 325 -52 108 -178 234 -284 284 -133 63 -277 81 -418 50z"/>
</g>
</svg>
